<svg xmlns="http://www.w3.org/2000/svg" width="1600" height="620" viewBox="0 0 1600 620">
  <defs><linearGradient id="bg" x1="0" x2="1"><stop stop-color="#F8FAFF"/><stop offset="1" stop-color="#EDF8FF"/></linearGradient><filter id="shadow" x="-20%" y="-20%" width="140%" height="140%"><feDropShadow dx="0" dy="7" stdDeviation="8" flood-color="#0F172A" flood-opacity=".13"/></filter></defs>
  <rect width="1600" height="620" rx="28" fill="url(#bg)"/>
  <g font-family="Microsoft YaHei, Arial, sans-serif" fill="#0F172A">
    <text x="75" y="70" font-size="28" font-weight="700" fill="#2563EB">一条可复现的受控实验链路</text>
    <g filter="url(#shadow)"><rect x="65" y="135" width="260" height="230" rx="20" fill="#fff" stroke="#BFDBFE" stroke-width="3"/><rect x="365" y="135" width="260" height="230" rx="20" fill="#fff" stroke="#BFDBFE" stroke-width="3"/><rect x="665" y="135" width="260" height="230" rx="20" fill="#fff" stroke="#BAE6FD" stroke-width="3"/><rect x="965" y="135" width="260" height="230" rx="20" fill="#fff" stroke="#BAE6FD" stroke-width="3"/><rect x="1265" y="135" width="260" height="230" rx="20" fill="#fff" stroke="#A7F3D0" stroke-width="3"/></g>
    <g font-size="25" font-weight="700" text-anchor="middle"><text x="195" y="188">01  输入对齐</text><text x="495" y="188">02  空间读取</text><text x="795" y="188">03  时间读取</text><text x="1095" y="188">04  先验注入</text><text x="1395" y="188">05  证据审计</text></g>
    <g font-size="20" fill="#475569" text-anchor="middle"><text x="195" y="235"><tspan x="195" dy="0">PASTIS 月度聚合</tspan><tspan x="195" dy="31">10 波段 · 64×64 tile</tspan><tspan x="195" dy="31">固定 folds / seed</tspan></text><text x="495" y="235"><tspan x="495" dy="0">Linear</tspan><tspan x="495" dy="31">卷积细化</tspan><tspan x="495" dy="31">多层融合</tspan></text><text x="795" y="235"><tspan x="795" dy="0">固定 mean(T)</tspan><tspan x="795" dy="31">Temporal Readout</tspan><tspan x="795" dy="31">3D-Aware</tspan></text><text x="1095" y="235"><tspan x="1095" dy="0">V1 Global Add</tspan><tspan x="1095" dy="31">V2 CA-HPI</tspan><tspan x="1095" dy="31">V3 SA-SFiLM</tspan></text><text x="1395" y="235"><tspan x="1395" dy="0">总体指标</tspan><tspan x="1395" dy="31">逐类 IoU / F1</tspan><tspan x="1395" dy="31">模块诊断</tspan></text></g>
    <g stroke="#60A5FA" stroke-width="6" fill="none"><path d="M330 250h25"/><path d="M630 250h25"/><path d="M930 250h25"/><path d="M1230 250h25"/></g>
    <g fill="#2563EB"><circle cx="195" cy="425" r="14"/><circle cx="495" cy="425" r="14"/><circle cx="795" cy="425" r="14"/><circle cx="1095" cy="425" r="14"/><circle cx="1395" cy="425" r="14"/></g>
    <path d="M195 425H1395" stroke="#93C5FD" stroke-width="4" stroke-dasharray="10 12"/>
    <text x="800" y="520" font-size="27" font-weight="700" fill="#1D4ED8" text-anchor="middle">每一步只增加一个新问题，结果才具有科研解释性</text>
  </g>
</svg>
